HIERARCHY
ROOT Hips
{
	OFFSET	0.00	0.00	0.00
	CHANNELS 6 Xposition Yposition Zposition Zrotation Xrotation Yrotation
	JOINT LeftUpLeg
	{
		OFFSET	 0.126116	-0.014019	-0.065224
		CHANNELS 3 Zrotation Xrotation Yrotation
		JOINT LeftLeg
		{
			OFFSET	 0.000000	 0.000000	 0.569914
			CHANNELS 3 Zrotation Xrotation Yrotation
			JOINT LeftFoot
			{
				OFFSET	 0.000000	 0.000000	 0.544423
				CHANNELS 3 Zrotation Xrotation Yrotation
				JOINT LeftToeBase
				{
					OFFSET	 0.000000	 0.000000	 0.207117
					CHANNELS 3 Zrotation Xrotation Yrotation
					End Site
					{
						OFFSET	 0.000000	 0.000000	 0.207117
					}
				}
			}
		}
	}
	JOINT RightUpLeg
	{
		OFFSET	-0.124023	-0.008373	-0.065224
		CHANNELS 3 Zrotation Xrotation Yrotation
		JOINT RightLeg
		{
			OFFSET	 0.000000	 0.000000	 0.570047
			CHANNELS 3 Zrotation Xrotation Yrotation
			JOINT RightFoot
			{
				OFFSET	 0.000000	 0.000000	 0.544354
				CHANNELS 3 Zrotation Xrotation Yrotation
				JOINT RightToeBase
				{
					OFFSET	 0.000000	 0.000000	 0.207540
					CHANNELS 3 Zrotation Xrotation Yrotation
					End Site
					{
						OFFSET	 0.000000	 0.000000	 0.207540
					}
				}
			}
		}
	}
	JOINT Spine
	{
		OFFSET	 0.000184	-0.007763	 0.117403
		CHANNELS 3 Zrotation Xrotation Yrotation
		JOINT Spine1
		{
			OFFSET	 0.000000	 0.000000	 0.137269
			CHANNELS 3 Zrotation Xrotation Yrotation
			JOINT Spine2
			{
				OFFSET	 0.000000	 0.000000	 0.156879
				CHANNELS 3 Zrotation Xrotation Yrotation
				JOINT LeftShoulder
				{
					OFFSET	 0.080501	-0.002496	 0.160144
					CHANNELS 3 Zrotation Xrotation Yrotation
					JOINT LeftArm
					{
						OFFSET	 0.000000	 0.000000	 0.164363
						CHANNELS 3 Zrotation Xrotation Yrotation
						JOINT LeftForeArm
						{
							OFFSET	 0.000000	 0.000000	 0.364576
							CHANNELS 3 Zrotation Xrotation Yrotation
							JOINT LeftHand
							{
								OFFSET	 0.000000	 0.000000	 0.360812
								CHANNELS 3 Zrotation Xrotation Yrotation
								JOINT LeftHandIndex1
								{
									OFFSET	 0.000000	 0.000000	 0.086006
									CHANNELS 3 Zrotation Xrotation Yrotation
									JOINT LeftHandIndex2
									{
										OFFSET	 0.000000	 0.000000	 0.047237
										CHANNELS 3 Zrotation Xrotation Yrotation
										JOINT LeftHandIndex3
										{
											OFFSET	-0.004284	-0.000551	 0.038165
											CHANNELS 3 Zrotation Xrotation Yrotation
											End Site
											{
												OFFSET	-0.004284	-0.000551	 0.038165
											}
										}
									}
								}
							}
						}
					}
				}
				JOINT Neck
				{
					OFFSET	 0.000000	 0.000000	 0.176489
					CHANNELS 3 Zrotation Xrotation Yrotation
					JOINT Head
					{
						OFFSET	 0.000000	-0.001747	 0.077940
						CHANNELS 3 Zrotation Xrotation Yrotation
						End Site
						{
							OFFSET	 0.000000	-0.001747	 0.077940
						}
					}
				}
				JOINT RightShoulder
				{
					OFFSET	-0.080363	 0.000306	 0.159706
					CHANNELS 3 Zrotation Xrotation Yrotation
					JOINT RightArm
					{
						OFFSET	 0.000000	 0.000000	 0.164196
						CHANNELS 3 Zrotation Xrotation Yrotation
						JOINT RightForeArm
						{
							OFFSET	 0.000000	 0.000000	 0.365611
							CHANNELS 3 Zrotation Xrotation Yrotation
							JOINT RightHand
							{
								OFFSET	 0.000000	 0.000000	 0.360648
								CHANNELS 3 Zrotation Xrotation Yrotation
								JOINT RightHandIndex1
								{
									OFFSET	 0.000000	 0.000000	 0.069977
									CHANNELS 3 Zrotation Xrotation Yrotation
									JOINT RightHandIndex2
									{
										OFFSET	 0.000000	 0.000000	 0.052305
										CHANNELS 3 Zrotation Xrotation Yrotation
										JOINT RightHandIndex3
										{
											OFFSET	 0.009002	-0.000782	 0.042196
											CHANNELS 3 Zrotation Xrotation Yrotation
											End Site
											{
												OFFSET	 0.009002	-0.000782	 0.042196
											}
										}
									}
								}
							}
						}
					}
				}
			}
		}
	}
}
MOTION
Frames:    12
Frame Time: 0.03333334
-0.450002	-0.033078	 1.272340	 179.882300	-2.291851	 1.394964	 9.176690	-0.508680	 176.364600	-2.058337	-13.326430	-0.604249	-20.328140	 71.545490	 6.575274	-2.385833	 28.452760	 0.000004	 14.594980	 0.737508	 178.505900	-0.741831	-10.683040	-0.419993	 25.278380	 69.152080	-8.427934	 2.384659	 28.388700	-0.000001	-3.460537	 8.045691	-1.668164	-0.750412	-3.200270	-3.475118	 4.120461	 3.617965	 5.731614	-91.776080	 78.527380	 179.999900	-29.276830	-5.551544	-0.837920	 2.286613	-3.305958	-37.671340	-1.156093	-11.302370	-2.763038	-4.130319	 21.525730	 0.991547	-5.167930	 0.731704	 3.519349	-1.378229	 35.397820	-2.634230	-1.607556	-1.185249	 0.812033	-11.061240	-19.726220	-7.637916	 89.782070	 78.203820	-180.000000	 4.959033	-11.270170	-3.227917	-13.481430	-5.517947	 36.414300	 3.445120	 33.138590	 68.777320	 5.716227	 19.173190	-3.685159	 5.027444	 0.246877	-9.377972	-2.350882	 35.473990	 5.254307
-0.450527	-0.033072	 1.272338	 179.910100	-3.259476	 1.766359	 16.546500	-0.411180	 174.977400	-5.419946	-13.860080	-1.437784	-9.325071	 72.141190	-1.907840	-2.385833	 28.452760	 0.000004	 15.529600	 1.670776	 177.846600	 1.227126	-10.587380	-0.054300	 17.044350	 68.826010	-1.616629	 2.384659	 28.388700	-0.000001	-2.996805	 8.786608	-2.509616	-0.617634	-0.683304	-3.383190	 3.754725	-0.341349	 6.575935	-91.776190	 78.527360	-180.000000	-43.091180	 0.138271	-0.729976	 1.277989	-2.743140	-40.017600	-0.300157	-13.360030	-1.953050	-4.130319	 21.525730	 0.991547	-5.167930	 0.731704	 3.519349	-1.378229	 35.397820	-2.634230	-2.272254	-0.144280	 1.219908	-12.195830	-24.059080	-10.760350	 89.782100	 78.203830	 180.000000	 10.835470	-8.825349	-3.743902	-14.392680	-6.920772	 39.433200	-0.437610	 43.143820	 92.504180	 5.716227	 19.173190	-3.685159	 5.027444	 0.246877	-9.377972	-2.350882	 35.473990	 5.254307
-0.450992	-0.033172	 1.271953	-179.947800	-3.811182	 2.373851	 21.750720	-1.775098	 173.607000	-7.997684	-16.406480	-2.434194	-2.861477	 73.297390	-6.410320	-2.385833	 28.452760	 0.000004	 15.479940	 1.386621	 177.322900	 2.646659	-12.114870	 0.235927	 10.375390	 68.936940	 4.138300	 2.384659	 28.388700	-0.000001	-2.920681	 9.138421	-3.264819	-0.608693	 1.229684	-3.939336	 3.479573	-3.228034	 7.523341	-91.776180	 78.527380	 180.000000	-54.847990	 6.753967	 3.785192	 0.093237	-2.358330	-48.619300	-0.234714	-13.285420	-1.879110	-4.130319	 21.525730	 0.991547	-5.167930	 0.731704	 3.519349	-1.378229	 35.397820	-2.634230	-2.827689	 0.715663	 1.729093	-13.449140	-27.298320	-13.648950	 89.782070	 78.203850	-180.000000	 17.706240	-5.908827	-6.847175	-13.695500	-8.947944	 49.254850	-2.883881	 51.643520	 106.313300	 5.716227	 19.173190	-3.685159	 5.027444	 0.246877	-9.377972	-2.350882	 35.473990	 5.254307
-0.451349	-0.033408	 1.271148	-179.799400	-3.977636	 2.908218	 24.322200	-3.659232	 172.717000	-9.529130	-19.784830	-3.447135	-1.297766	 74.837270	-6.810575	-2.385833	 28.452760	 0.000004	 14.981820	 0.143188	 177.187400	 3.417222	-14.949430	 0.488905	 7.360566	 69.779460	 6.645566	 2.384659	 28.388700	-0.000001	-3.216243	 9.178999	-3.742490	-0.727860	 2.358546	-4.659253	 3.351727	-4.768410	 8.266182	-91.776210	 78.527380	-180.000000	-59.734080	 12.448600	 10.231460	-0.840939	-1.992409	-60.191470	-0.766014	-12.368630	-2.101196	-4.130319	 21.525730	 0.991547	-5.167930	 0.731704	 3.519349	-1.378229	 35.397820	-2.634230	-3.158340	 1.219777	 2.124505	-14.336640	-29.009250	-15.509740	 89.782160	 78.203870	 179.999900	 22.190600	-2.983832	-11.102770	-11.530560	-10.699610	 62.759600	 0.634556	 56.490810	 106.101700	 5.716227	 19.173190	-3.685159	 5.027444	 0.246877	-9.377972	-2.350882	 35.473990	 5.254307
-0.451699	-0.033879	 1.269596	-179.558900	-3.792441	 2.928151	 23.380210	-5.539041	 172.851900	-9.794156	-24.106390	-4.268315	-4.748848	 77.528770	-3.309545	-2.385833	 28.452760	 0.000004	 14.273930	-2.139763	 177.966400	 3.571461	-19.616600	 0.688103	 10.036330	 72.183800	 3.628752	 2.384659	 28.388700	-0.000001	-4.243615	 8.946090	-3.671959	-1.105992	 2.681081	-4.962759	 3.402142	-4.773293	 8.482634	-91.776200	 78.527400	-180.000000	-54.237400	 18.109730	 15.777760	-1.411978	-2.057904	-74.571460	-0.661255	-12.509380	-2.109798	-4.130319	 21.525730	 0.991547	-5.167930	 0.731704	 3.519349	-1.378229	 35.397820	-2.634230	-3.155584	 1.193139	 2.272042	-14.338070	-28.824270	-15.936850	 89.782100	 78.203890	 180.000000	 22.874760	 0.499276	-15.371750	-7.860263	-11.333630	 81.008480	 17.974850	 56.071440	 79.717080	 5.716227	 19.173190	-3.685159	 5.027444	 0.246877	-9.377972	-2.350882	 35.473990	 5.254307
-0.452035	-0.034378	 1.268017	-179.385500	-3.612195	 2.917460	 22.495550	-7.074728	 173.013900	-10.009140	-27.800580	-4.974242	-9.350735	 79.855030	 1.274777	-2.385833	 28.452760	 0.000004	 13.833950	-3.989090	 178.761800	 3.666282	-23.374950	 0.850812	 13.599700	 74.079280	-0.248841	 2.384659	 28.388700	-0.000001	-5.180954	 8.720763	-3.594135	-1.500971	 3.004380	-5.192243	 3.459701	-4.764876	 8.636511	-91.776190	 78.527400	-180.000000	-47.547100	 24.708210	 17.358420	-1.775247	-2.007417	-84.246440	-0.548798	-12.668880	-2.104131	-4.130319	 21.525730	 0.991547	-5.167930	 0.731704	 3.519349	-1.378229	 35.397820	-2.634230	-3.135271	 1.145241	 2.365176	-14.288190	-28.589210	-16.167110	 89.782140	 78.203870	 180.000000	 23.054800	 5.477139	-16.813790	-5.050443	-10.964700	 95.436730	 30.305800	 51.937450	 57.022630	 5.716227	 19.173190	-3.685159	 5.027444	 0.246877	-9.377972	-2.350882	 35.473990	 5.254307
-0.452781	-0.035340	 1.265083	-179.024000	-3.351195	 2.838206	 21.472410	-9.360699	 173.286200	-10.815250	-33.573370	-6.349249	-20.817470	 83.218670	 12.952700	-2.385833	 28.452760	 0.000004	 13.207580	-6.697931	-179.690000	 3.964629	-29.036650	 1.185815	 20.631570	 76.635130	-7.900350	 2.384659	 28.388700	-0.000001	-6.867417	 8.459373	-3.394450	-2.212844	 3.572352	-5.609699	 3.493809	-4.877543	 8.935081	-91.776150	 78.527400	 180.000000	-32.292980	 38.382970	 9.449051	-2.012392	-1.643411	-91.354300	-0.520579	-12.642600	-2.107675	-4.130319	 21.525730	 0.991547	-5.167930	 0.731704	 3.519349	-1.378229	 35.397820	-2.634230	-3.089590	 0.880582	 2.126027	-14.176620	-28.209790	-15.762770	 89.782070	 78.203870	-180.000000	 21.040230	 20.592500	-12.301070	-2.196733	-8.834409	 113.971100	 39.462540	 40.803680	 24.896600	 5.716227	 19.173190	-3.685159	 5.027444	 0.246877	-9.377972	-2.350882	 35.473990	 5.254307
-0.453573	-0.036207	 1.262550	-178.752300	-3.127066	 2.773640	 20.777780	-10.967050	 173.512800	-11.596160	-37.805880	-7.522836	-40.008430	 85.375220	 32.319660	-2.385833	 28.452760	 0.000004	 12.895510	-8.611614	-178.337300	 4.230082	-33.015440	 1.475955	 28.113580	 78.151890	-15.923100	 2.384659	 28.388700	-0.000001	-8.262123	 8.219052	-3.251375	-2.822340	 4.108142	-5.907441	 3.522481	-5.027183	 9.160595	-91.776310	 78.527400	-179.999900	-14.483840	 47.535820	-9.609941	-1.886582	-1.302107	-86.329180	-0.514272	-12.594990	-2.111731	-4.130319	 21.525730	 0.991547	-5.167930	 0.731704	 3.519349	-1.378229	 35.397820	-2.634230	-3.055162	 0.664577	 1.909478	-14.093050	-27.926930	-15.385120	 89.782130	 78.203870	 180.000000	 10.063790	 37.234160	 2.931149	-1.812433	-7.379470	 120.362400	 32.896560	 30.084010	 6.366326	 5.716227	 19.173190	-3.685159	 5.027444	 0.246877	-9.377972	-2.350882	 35.473990	 5.254307
-0.455326	-0.037695	 1.258581	-178.089800	-2.908540	 2.647436	 19.034000	-12.789810	 173.985100	-12.666270	-43.462890	-9.184825	-101.195200	 85.947690	 93.608890	-2.385833	 28.452760	 0.000004	 12.129180	-10.930540	-176.124600	 4.714612	-38.134640	 1.972337	 40.953430	 79.427110	-29.629870	 2.384659	 28.388700	-0.000001	-10.688740	 7.755567	-3.235134	-3.743594	 5.213218	-5.664227	 3.434346	-5.166535	 9.054619	-91.776170	 78.527420	-180.000000	 14.093430	 52.388100	-53.106630	-1.602858	-0.565826	-57.723100	-0.526935	-12.514400	-2.116576	-4.130319	 21.525730	 0.991547	-5.167930	 0.731704	 3.519349	-1.378229	 35.397820	-2.634230	-2.990157	-0.189570	 0.632708	-13.642420	-26.782220	-12.381120	 89.782140	 78.203900	 179.999900	-30.991810	 49.243430	 53.455490	-3.346380	-7.666621	 110.048200	 9.479620	 18.937350	-5.083334	 5.716227	 19.173190	-3.685159	 5.027444	 0.246877	-9.377972	-2.350882	 35.473990	 5.254307
-0.456401	-0.038315	 1.257208	-177.786000	-2.852694	 2.585279	 18.302300	-13.262110	 174.215000	-13.040160	-45.164670	-9.735937	-117.276200	 85.151920	 109.715900	-2.385833	 28.452760	 0.000004	 11.762690	-11.610090	-175.300900	 4.920145	-39.672560	 2.170457	 45.294910	 79.612780	-34.285450	 2.384659	 28.388700	-0.000001	-11.668800	 7.598657	-3.226124	-4.031027	 5.563605	-5.460416	 3.373541	-5.157443	 8.939741	-91.776180	 78.527350	-180.000000	 22.188260	 52.154890	-70.626920	-1.675658	-0.228837	-40.061770	-0.533242	-12.479470	-2.118556	-4.130319	 21.525730	 0.991547	-5.167930	 0.731704	 3.519349	-1.378229	 35.397820	-2.634230	-2.967915	-0.578399	 0.046198	-13.458150	-26.263160	-10.993960	 89.782150	 78.203920	 180.000000	-44.455840	 47.403500	 71.313710	-4.610626	-7.863434	 101.053100	 1.933045	 15.265020	-4.701915	 5.716227	 19.173190	-3.685159	 5.027444	 0.246877	-9.377972	-2.350882	 35.473990	 5.254307
-0.459403	-0.039460	 1.255494	-177.356700	-2.802403	 2.396690	 17.031860	-13.620610	 174.774300	-13.337590	-46.994010	-10.257280	-128.444200	 83.931720	 120.860700	-2.385833	 28.452760	 0.000004	 10.835240	-12.415730	-174.022300	 5.229640	-41.420860	 2.454414	 48.183260	 79.242230	-37.672220	 2.384659	 28.388700	-0.000001	-13.159030	 7.294650	-3.258831	-4.346964	 6.262432	-4.824625	 3.279449	-5.586126	 8.739275	-91.776150	 78.527380	 180.000000	 33.559340	 50.431900	-101.953300	-2.278428	 0.035786	-1.105205	-0.593143	-12.234350	-2.130765	-4.130319	 21.525730	 0.991547	-5.167930	 0.731704	 3.519349	-1.378229	 35.397820	-2.634230	-3.353638	 0.456598	 0.846539	-13.977640	-27.133190	-12.890150	 89.782150	 78.203890	 180.000000	-58.202270	 42.732450	 91.841710	-6.797950	-7.301008	 85.003660	-6.794913	 8.326809	-1.471032	 5.716227	 19.173190	-3.685159	 5.027444	 0.246877	-9.377972	-2.350882	 35.473990	 5.254307
-0.462569	-0.040376	 1.254999	-177.044100	-2.852532	 2.230263	 16.153010	-13.472190	 175.231100	-13.251660	-47.222990	-10.229830	-129.819200	 83.614600	 122.196300	-2.385833	 28.452760	 0.000004	 9.954572	-12.573040	-173.417300	 5.404779	-41.769780	 2.588238	 46.760990	 78.791380	-36.472190	 2.384659	 28.388700	-0.000001	-14.058690	 7.181364	-3.247994	-4.355205	 6.554091	-4.212947	 3.185909	-5.867757	 8.509629	-91.776180	 78.527360	-180.000000	 43.163970	 47.951320	-100.206700	-2.754261	 0.362426	-22.926830	-0.644475	-12.024090	-2.140365	-4.130319	 21.525730	 0.991547	-5.167930	 0.731704	 3.519349	-1.378229	 35.397820	-2.634230	-3.724888	 1.498421	 1.762714	-14.540270	-28.054410	-15.042410	 89.782220	 78.203890	 179.999900	-63.129830	 40.290610	 99.615230	-7.648899	-6.562697	 77.359740	-10.121090	 4.155360	 0.217061	 5.716227	 19.173190	-3.685159	 5.027444	 0.246877	-9.377972	-2.350882	 35.473990	 5.254307
